<svg xmlns:xlink="http://www.w3.org/1999/xlink" width="81" xmlns="http://www.w3.org/2000/svg" height="64" id="screenshot-68687f9b-1e6a-8026-8002-0dd5e072e602" viewBox="343 -44 81 64" style="-webkit-print-color-adjust: exact;" fill="none" version="1.1"><g id="shape-68687f9b-1e6a-8026-8002-0dd5e072e602"><g class="fills" id="fills-68687f9b-1e6a-8026-8002-0dd5e072e602"><path rx="0" ry="0" d="M384.149,-18.545C384.149,-18.545,387.605,-43.027,404.014,-43.000C417.278,-42.979,429.090,-33.378,419.519,-17.216C414.071,-4.730,389.883,16.803,384.836,19.000C384.836,19.000,355.302,-4.020,347.570,-17.270C342.461,-26.025,340.334,-42.380,358.852,-42.903C375.281,-43.367,384.149,-18.545,384.149,-18.545Z" style="fill: rgb(255, 64, 64); fill-opacity: 1;"/></g><g id="strokes-68687f9b-1e6a-8026-8002-0dd5e072e602" class="strokes"><g class="stroke-shape"><path rx="0" ry="0" d="M384.149,-18.545C384.149,-18.545,387.605,-43.027,404.014,-43.000C417.278,-42.979,429.090,-33.378,419.519,-17.216C414.071,-4.730,389.883,16.803,384.836,19.000C384.836,19.000,355.302,-4.020,347.570,-17.270C342.461,-26.025,340.334,-42.380,358.852,-42.903C375.281,-43.367,384.149,-18.545,384.149,-18.545Z" style="fill: none; stroke-width: 2; stroke: rgb(199, 50, 50); stroke-opacity: 1;"/></g></g></g></svg>